<svg width="44" height="17" viewBox="0 0 44 17" fill="none" xmlns="http://www.w3.org/2000/svg">
<g style="mix-blend-mode:darken">
<path d="M43.5869 3.12322H38.8211L37.2896 6.04513H38.0554L34.5088 13.098H38.0453L38.7405 11.3952H40.7556V13.098H44L43.5869 3.12322ZM39.7279 9.02749L40.7355 6.51868L40.7859 9.02749H39.7279Z" fill="#005CAA"/>
</g>
<g style="mix-blend-mode:darken">
<path d="M33.9848 13.1383L35.5969 9.91415C35.1134 10.2495 34.5656 10.4809 33.988 10.5936C33.4105 10.7064 32.8159 10.698 32.2417 10.5691C31.8377 10.42 31.4942 10.1416 31.2646 9.77718C31.0351 9.41279 30.9323 8.98277 30.9722 8.55395C31.0074 8.18586 31.1178 7.82892 31.2966 7.50525C31.4753 7.18159 31.7187 6.89808 32.0115 6.67231C32.3044 6.44655 32.6404 6.28333 32.9989 6.19278C33.3574 6.10222 33.7307 6.08626 34.0956 6.14589C34.7984 6.20293 35.4617 6.49381 35.9798 6.97208L37.5012 4.21138L35.3752 3.10307L35.1133 3.43556C34.113 3.13277 33.036 3.21175 32.0906 3.65723C31.6147 3.82536 31.1586 4.04497 30.7304 4.31214C29.9817 4.77669 29.3369 5.39066 28.8362 6.11566C28.8362 6.11566 26.9319 8.85621 28.1813 11.2643C28.806 12.6144 30.1964 13.3801 32.2921 13.3801C32.8662 13.4007 33.4394 13.3188 33.9848 13.1383Z" fill="#005CAA"/>
</g>
<g style="mix-blend-mode:darken">
<path d="M27.7179 3.77813C27.1836 3.32298 26.4941 3.09194 25.7935 3.13329H21.6423L20.1108 6.15596H20.8363L19.0529 13.1182H23.9496C24.8868 13.1146 25.7874 12.7543 26.4685 12.1106C27.8086 10.7806 27.9799 8.81591 26.4685 7.94941C28.3325 6.93178 28.8061 4.89652 27.7179 3.77813ZM24.6146 10.0955C24.5073 10.2381 24.3639 10.3497 24.1993 10.4187C24.0346 10.4878 23.8546 10.5118 23.6776 10.4884H22.67L23.0932 8.98719H24.1511C24.2809 8.98411 24.4085 9.02024 24.5174 9.09087C24.6263 9.1615 24.7113 9.26333 24.7614 9.38306C24.8115 9.50279 24.8242 9.63484 24.798 9.76195C24.7719 9.88906 24.7079 10.0053 24.6146 10.0955ZM25.1688 6.74034C25.0158 6.93876 24.7985 7.0777 24.5542 7.13329H23.5063L23.7783 5.84362H24.8363C24.9395 5.84565 25.0396 5.8787 25.1238 5.93847C25.2079 5.99824 25.2721 6.08196 25.308 6.17873C25.3438 6.27549 25.3498 6.38082 25.3249 6.48099C25.3001 6.58116 25.2457 6.67153 25.1688 6.74034Z" fill="#005CAA"/>
</g>
<g style="mix-blend-mode:darken">
<g style="mix-blend-mode:darken">
<path d="M8.27206 12.6043H8.05039V9.98467C7.95971 7.58669 7.34511 6.90155 6.398 5.95445C6.00225 5.59303 5.72738 5.11853 5.61074 4.59543C5.49411 4.07232 5.54136 3.52599 5.74609 3.03069C5.95082 2.53538 6.30308 2.11512 6.75502 1.82703C7.20695 1.53893 7.73662 1.39698 8.27206 1.42045" fill="#005CAA"/>
</g>
<g style="mix-blend-mode:darken">
<path d="M8.27199 12.6043H8.49366V9.98467C8.58434 7.58669 9.19894 6.90155 10.136 5.95445C10.5309 5.59358 10.8054 5.12004 10.9223 4.59797C11.0391 4.07589 10.9927 3.53052 10.7893 3.03571C10.5859 2.5409 10.2353 2.12057 9.78501 1.83165C9.33475 1.54273 8.80656 1.39918 8.27199 1.42045" fill="#005CAA"/>
</g>
<g style="mix-blend-mode:darken">
<path d="M7.91934 12.6043C8.08055 9.98467 7.80851 8.161 7.02262 6.8814C6.76327 6.47689 6.41958 6.13319 6.01506 5.87385C5.7482 5.70262 5.44685 5.59237 5.1325 5.55093C4.81815 5.50949 4.49853 5.53789 4.19641 5.63411C3.89429 5.73032 3.61711 5.89199 3.38462 6.10758C3.15212 6.32317 2.97004 6.58739 2.85134 6.8814C2.7222 7.30526 2.68443 7.75169 2.74051 8.19122C2.84126 9.03757 3.607 9.34991 4.34252 9.5615C5.07804 9.77309 7.36519 10.0351 7.5667 12.6547L7.91934 12.6043Z" fill="#005CAA"/>
</g>
<g style="mix-blend-mode:darken">
<path d="M8.62469 12.6043C8.46349 9.98467 8.73553 8.161 9.52142 6.8814C9.77793 6.47461 10.1222 6.13035 10.529 5.87385C10.7958 5.70262 11.0972 5.59237 11.4115 5.55093C11.7259 5.50949 12.0455 5.53789 12.3476 5.63411C12.6497 5.73032 12.9269 5.89199 13.1594 6.10758C13.3919 6.32317 13.574 6.58739 13.6927 6.8814C13.8218 7.30526 13.8596 7.75169 13.8035 8.19122C13.7028 9.03757 12.937 9.34991 12.2015 9.5615C11.466 9.77309 9.17885 10.0351 8.97734 12.6547L8.62469 12.6043Z" fill="#005CAA"/>
</g>
<g style="mix-blend-mode:darken">
<path d="M7.38533 12.6043C7.42268 12.1705 7.33653 11.735 7.13685 11.3481C6.93716 10.9613 6.63208 10.6388 6.25686 10.4179C5.77764 10.1583 5.26098 9.97475 4.72538 9.87384C2.95208 9.47082 2.91178 8.98719 2.91178 8.98719C2.66252 9.31633 2.52762 9.7179 2.52762 10.1308C2.52762 10.5436 2.66252 10.9452 2.91178 11.2743C3.15704 11.5529 3.47948 11.7523 3.83823 11.8474C4.19698 11.9425 4.57588 11.9289 4.92689 11.8083C6.02513 11.5968 6.75057 11.5162 7.05283 12.6043H7.38533Z" fill="#005CAA"/>
</g>
<g style="mix-blend-mode:darken">
<path d="M9.14858 12.6043C9.11123 12.1705 9.19738 11.735 9.39706 11.3481C9.59675 10.9613 9.90183 10.6388 10.277 10.4179C10.7556 10.1568 11.2725 9.97314 11.8085 9.87384C13.5818 9.47082 13.6221 8.98719 13.6221 8.98719C13.8714 9.31633 14.0063 9.7179 14.0063 10.1308C14.0063 10.5436 13.8714 10.9452 13.6221 11.2743C13.3769 11.5529 13.0544 11.7523 12.6957 11.8474C12.3369 11.9425 11.958 11.9289 11.607 11.8083C10.5088 11.5968 9.78334 11.5162 9.48108 12.6043H9.14858Z" fill="#005CAA"/>
</g>
<g style="mix-blend-mode:darken">
<path d="M8.27203 16.564C5.95787 16.5481 3.67617 16.0181 1.59194 15.0124H1.51133V14.9318C-0.503778 10.166 -0.503778 5.71264 1.51133 1.69249V1.63204H1.57179C3.64062 0.559711 5.93677 0 8.26699 0C10.5972 0 12.8934 0.559711 14.9622 1.63204H15.0327V1.71264C17.0478 6.40785 17.0478 10.8612 15.0327 14.9519V15.0225H14.9521C12.8665 16.0231 10.5852 16.5496 8.27203 16.564ZM1.86398 14.6295C3.86418 15.5944 6.05631 16.0955 8.27707 16.0955C10.4978 16.0955 12.69 15.5944 14.6902 14.6295C16.6448 10.7101 16.6347 6.43808 14.6902 1.9343C12.7058 0.915898 10.5075 0.384714 8.27707 0.384714C6.04666 0.384714 3.84831 0.915898 1.86398 1.9343C-0.100756 5.78317 -0.100756 10.0552 1.86398 14.6295Z" fill="#005CAA"/>
</g>
<g style="mix-blend-mode:darken">
<path d="M4.83629 14.1257L4.66501 14.7907H4.52395C4.52863 14.7371 4.52863 14.6831 4.52395 14.6295C4.46975 14.6736 4.40476 14.7025 4.33569 14.7131C4.26662 14.7237 4.19596 14.7157 4.13101 14.69C4.05449 14.6727 3.98332 14.6371 3.92364 14.5862C3.86396 14.5353 3.81756 14.4706 3.78844 14.3978C3.72774 14.2423 3.72774 14.0696 3.78844 13.9141C3.83562 13.7443 3.93853 13.5953 4.08063 13.491C4.14365 13.449 4.21534 13.4217 4.29035 13.4113C4.36536 13.4008 4.44176 13.4074 4.51388 13.4305C4.63448 13.4617 4.73885 13.5372 4.80607 13.6421C4.87129 13.7473 4.89633 13.8725 4.8766 13.9947H4.59448C4.59448 13.8335 4.59448 13.7429 4.44335 13.7126C4.40888 13.6978 4.37049 13.6947 4.33408 13.7038C4.29768 13.7129 4.26527 13.7337 4.24184 13.763C4.16717 13.8434 4.11201 13.94 4.08063 14.0451C4.05152 14.1438 4.05152 14.2487 4.08063 14.3474C4.09038 14.3863 4.11052 14.4219 4.13892 14.4503C4.16731 14.4787 4.20288 14.4989 4.24184 14.5086C4.29367 14.5288 4.35121 14.5288 4.40304 14.5086C4.43116 14.4952 4.45579 14.4756 4.47502 14.4511C4.49425 14.4266 4.50755 14.398 4.51388 14.3675L4.27206 14.297L4.36274 13.9847L4.83629 14.1257Z" fill="#005CAA"/>
</g>
<g style="mix-blend-mode:darken">
<path d="M5.37031 14.428L5.25948 14.9217L4.94713 14.8512L5.2494 13.6119L5.77333 13.7227C5.85555 13.7323 5.93467 13.7598 6.00507 13.8033C6.06572 13.836 6.11231 13.8898 6.13605 13.9544C6.16061 14.0263 6.16061 14.1043 6.13605 14.1761C6.12845 14.2477 6.09782 14.3149 6.04876 14.3676C5.99971 14.4203 5.93487 14.4556 5.86401 14.4683L6.01514 15.0728L5.67257 15.0124C5.67257 14.831 5.59197 14.6497 5.56174 14.4683L5.37031 14.428ZM5.48114 13.894L5.41061 14.2164H5.59197C5.63529 14.2241 5.67963 14.2241 5.72295 14.2164H5.80356C5.81596 14.184 5.81596 14.1481 5.80356 14.1157C5.8108 14.0998 5.81455 14.0827 5.81455 14.0653C5.81455 14.0479 5.8108 14.0307 5.80356 14.0149C5.80356 14.0149 5.80356 14.0149 5.7431 13.9544H5.61212L5.48114 13.894Z" fill="#005CAA"/>
</g>
<g style="mix-blend-mode:darken">
<path d="M7.38544 13.9343L7.33507 14.7303C7.33121 14.8271 7.31076 14.9225 7.27461 15.0124C7.23052 15.0773 7.16705 15.1267 7.09325 15.1534C6.98351 15.1754 6.8705 15.1754 6.76076 15.1534C6.65367 15.151 6.54924 15.1197 6.45849 15.0628C6.39051 15.024 6.33734 14.9638 6.30736 14.8915C6.28614 14.7918 6.28614 14.6888 6.30736 14.5892L6.41819 13.7932L6.73053 13.8436L6.63985 14.6295C6.62924 14.6793 6.62924 14.7308 6.63985 14.7806C6.64803 14.8173 6.66958 14.8497 6.70031 14.8713C6.7432 14.8829 6.78839 14.8829 6.83129 14.8713C6.87773 14.8817 6.9259 14.8817 6.97235 14.8713C6.97235 14.8713 7.04288 14.8713 7.05295 14.8008C7.05673 14.7505 7.05673 14.7 7.05295 14.6497L7.12348 13.8537L7.38544 13.9343Z" fill="#005CAA"/>
</g>
<g style="mix-blend-mode:darken">
<path d="M7.84883 14.7605V15.234H7.52641L7.58686 13.9544H8.07049C8.15422 13.9455 8.23865 13.9455 8.32238 13.9544C8.38404 13.9831 8.43641 14.0285 8.47351 14.0854C8.52245 14.1493 8.55058 14.2267 8.55412 14.3071C8.56839 14.3701 8.56839 14.4355 8.55412 14.4985C8.53617 14.5549 8.50092 14.6043 8.45336 14.6396C8.41421 14.6706 8.36986 14.6945 8.32238 14.7101C8.25233 14.7218 8.18084 14.7218 8.11079 14.7101L7.84883 14.7605ZM7.84883 14.5287H8.04026C8.06552 14.5405 8.09303 14.5465 8.12087 14.5465C8.14871 14.5465 8.17622 14.5405 8.20147 14.5287C8.21551 14.4931 8.21551 14.4535 8.20147 14.4179C8.21883 14.376 8.21883 14.3289 8.20147 14.2869C8.15281 14.2683 8.099 14.2683 8.05034 14.2869H7.8589L7.84883 14.5287Z" fill="#005CAA"/>
</g>
<g style="mix-blend-mode:darken">
<path d="M9.14856 13.9242L9.72287 13.8738C9.79922 13.8572 9.87826 13.8572 9.95461 13.8738C10.0103 13.8941 10.0616 13.9249 10.1057 13.9645C10.1472 14.0125 10.172 14.0726 10.1763 14.1358C10.1868 14.2021 10.1732 14.27 10.1381 14.3273C10.1031 14.3845 10.0487 14.4274 9.98483 14.4481C10.0672 14.4507 10.1459 14.4829 10.2065 14.5388C10.2553 14.5895 10.2901 14.652 10.3072 14.7202C10.312 14.767 10.3073 14.8143 10.2934 14.8593C10.2796 14.9043 10.2569 14.9461 10.2266 14.9822C10.1324 15.0753 10.0064 15.1293 9.874 15.1333L9.23924 15.1937L9.14856 13.9242ZM9.4609 14.1257V14.4078H9.69264C9.7213 14.4069 9.74947 14.4002 9.77545 14.3881C9.80143 14.376 9.82468 14.3587 9.84377 14.3373C9.8476 14.3038 9.8476 14.27 9.84377 14.2366C9.8492 14.21 9.8492 14.1825 9.84377 14.156C9.82422 14.149 9.80288 14.149 9.78332 14.156C9.74373 14.1453 9.70201 14.1453 9.66241 14.156L9.4609 14.1257ZM9.4609 14.6295V14.9418H9.70272C9.7667 14.9409 9.82794 14.9157 9.874 14.8713C9.88461 14.8529 9.8902 14.8321 9.8902 14.8109C9.8902 14.7896 9.88461 14.7688 9.874 14.7504C9.87368 14.7311 9.86781 14.7123 9.85709 14.6962C9.84637 14.6801 9.83126 14.6675 9.81355 14.6597C9.78829 14.648 9.76079 14.6419 9.73294 14.6419C9.7051 14.6419 9.67759 14.648 9.65234 14.6597L9.4609 14.6295Z" fill="#005CAA"/>
</g>
<g style="mix-blend-mode:darken">
<path d="M11.4156 14.0451L11.1134 14.1358C11.1134 13.9645 10.9824 13.8839 10.8514 13.9141C10.7204 13.9444 10.6499 14.0955 10.7003 14.3675C10.7089 14.4831 10.7548 14.5927 10.8312 14.6799C10.8571 14.7025 10.8878 14.7189 10.921 14.7276C10.9542 14.7364 10.989 14.7373 11.0227 14.7303C11.1537 14.7303 11.2141 14.6094 11.204 14.4381H11.4962C11.5088 14.5047 11.5072 14.5732 11.4916 14.6391C11.476 14.7051 11.4466 14.767 11.4055 14.8209C11.3221 14.9254 11.2043 14.9968 11.0731 15.0225C10.9937 15.0392 10.9117 15.0398 10.8321 15.0242C10.7525 15.0087 10.6768 14.9772 10.6096 14.9318C10.5412 14.876 10.4846 14.8072 10.4431 14.7294C10.4016 14.6515 10.376 14.5662 10.3678 14.4784C10.3378 14.3105 10.3625 14.1374 10.4383 13.9847C10.4778 13.9167 10.5316 13.858 10.5959 13.8128C10.6603 13.7676 10.7337 13.7368 10.8111 13.7227C10.934 13.6878 11.0657 13.7019 11.1784 13.762C11.2911 13.8221 11.3762 13.9236 11.4156 14.0451Z" fill="#005CAA"/>
</g>
<g style="mix-blend-mode:darken">
<path d="M12.0604 13.3801C12.3156 13.7496 12.5776 14.1123 12.8463 14.4683L12.5138 14.5791L12.3627 14.3474L11.9395 14.4784C11.9445 14.569 11.9445 14.6598 11.9395 14.7504L11.6675 14.8209C11.6675 14.3675 11.738 13.9242 11.7481 13.4708L12.0604 13.3801ZM11.9496 14.2265L12.2216 14.1459L11.9596 13.7529C11.9596 13.9141 11.9596 14.0653 11.9496 14.2265Z" fill="#005CAA"/>
</g>
</g>
</svg>
