<svg width="28" height="28" viewBox="0 0 28 28" fill="none" xmlns="http://www.w3.org/2000/svg">
<path fill-rule="evenodd" clip-rule="evenodd" d="M4.19995 5.6002C4.19995 4.827 4.82675 4.2002 5.59995 4.2002H9.79995C10.5731 4.2002 11.2 4.827 11.2 5.6002V9.8002C11.2 10.5734 10.5731 11.2002 9.79995 11.2002H5.59995C4.82675 11.2002 4.19995 10.5734 4.19995 9.8002V5.6002ZM6.99995 8.4002V7.0002H8.39995V8.4002H6.99995Z" fill="white"/>
<path fill-rule="evenodd" clip-rule="evenodd" d="M4.19995 18.2002C4.19995 17.427 4.82675 16.8002 5.59995 16.8002H9.79995C10.5731 16.8002 11.2 17.427 11.2 18.2002V22.4002C11.2 23.1734 10.5731 23.8002 9.79995 23.8002H5.59995C4.82675 23.8002 4.19995 23.1734 4.19995 22.4002V18.2002ZM6.99995 21.0002V19.6002H8.39995V21.0002H6.99995Z" fill="white"/>
<path fill-rule="evenodd" clip-rule="evenodd" d="M18.2 4.2002C17.4268 4.2002 16.8 4.827 16.8 5.6002V9.8002C16.8 10.5734 17.4268 11.2002 18.2 11.2002H22.4C23.1731 11.2002 23.8 10.5734 23.8 9.8002V5.6002C23.8 4.827 23.1731 4.2002 22.4 4.2002H18.2ZM19.6 7.0002V8.4002H21V7.0002H19.6Z" fill="white"/>
<path d="M15.4 5.6002C15.4 4.827 14.7731 4.2002 14 4.2002C13.2268 4.2002 12.6 4.827 12.6 5.6002V7.0002C12.6 7.77339 13.2268 8.4002 14 8.4002C14.7731 8.4002 15.4 7.77339 15.4 7.0002V5.6002Z" fill="white"/>
<path d="M14 9.8002C14.7731 9.8002 15.4 10.427 15.4 11.2002V12.6002H18.2C18.9731 12.6002 19.6 13.227 19.6 14.0002C19.6 14.7734 18.9731 15.4002 18.2 15.4002H14C13.2268 15.4002 12.6 14.7734 12.6 14.0002V11.2002C12.6 10.427 13.2268 9.8002 14 9.8002Z" fill="white"/>
<path d="M22.4 12.6002C21.6268 12.6002 21 13.227 21 14.0002C21 14.7734 21.6268 15.4002 22.4 15.4002C23.1731 15.4002 23.8 14.7734 23.8 14.0002C23.8 13.227 23.1731 12.6002 22.4 12.6002Z" fill="white"/>
<path d="M12.6 18.2002C12.6 17.427 13.2268 16.8002 14 16.8002H15.4C16.1731 16.8002 16.8 17.427 16.8 18.2002C16.8 18.9734 16.1731 19.6002 15.4 19.6002V22.4002C15.4 23.1734 14.7731 23.8002 14 23.8002C13.2268 23.8002 12.6 23.1734 12.6 22.4002V18.2002Z" fill="white"/>
<path d="M9.79995 15.4002C10.5731 15.4002 11.2 14.7734 11.2 14.0002C11.2 13.227 10.5731 12.6002 9.79995 12.6002H5.59995C4.82675 12.6002 4.19995 13.227 4.19995 14.0002C4.19995 14.7734 4.82675 15.4002 5.59995 15.4002H9.79995Z" fill="white"/>
<path d="M23.8 18.2002C23.8 18.9734 23.1731 19.6002 22.4 19.6002H19.6C18.8268 19.6002 18.2 18.9734 18.2 18.2002C18.2 17.427 18.8268 16.8002 19.6 16.8002H22.4C23.1732 16.8002 23.8 17.427 23.8 18.2002Z" fill="white"/>
<path d="M22.4 23.8002C23.1732 23.8002 23.8 23.1734 23.8 22.4002C23.8 21.627 23.1732 21.0002 22.4 21.0002H18.2C17.4268 21.0002 16.8 21.627 16.8 22.4002C16.8 23.1734 17.4268 23.8002 18.2 23.8002H22.4Z" fill="white"/>
</svg>
