<svg width="20" height="20" viewBox="0 0 20 20" fill="none" xmlns="http://www.w3.org/2000/svg">
<path d="M9.10556 17.4472C9.27495 17.786 9.62122 18 9.99999 18C10.3788 18 10.725 17.786 10.8944 17.4472L17.8944 3.44721C18.0718 3.09251 18.0228 2.66653 17.7695 2.36136C17.5162 2.0562 17.1066 1.92953 16.7253 2.03848L11.7253 3.46704C11.296 3.5897 11 3.98209 11 4.42857L11 9C11 9.55228 10.5523 10 10 10C9.44772 10 9 9.55228 9 9L9 4.42857C9 3.98209 8.70402 3.58971 8.27472 3.46705L3.27471 2.03847C2.8934 1.92953 2.48374 2.0562 2.23048 2.36136C1.97722 2.66652 1.92821 3.09251 2.10556 3.44721L9.10556 17.4472Z" fill="white"/>
</svg>
