<svg width="24" height="24" viewBox="0 0 24 24" fill="none" xmlns="http://www.w3.org/2000/svg">
<path d="M12.8484 2.75186C12.3798 2.28323 11.62 2.28323 11.1514 2.75186L2.75137 11.1519C2.28275 11.6205 2.28275 12.3803 2.75137 12.8489C3.22 13.3175 3.9798 13.3175 4.44843 12.8489L4.7999 12.4974V20.4004C4.7999 21.0631 5.33716 21.6004 5.9999 21.6004H8.3999C9.06264 21.6004 9.5999 21.0631 9.5999 20.4004V18.0004C9.5999 17.3376 10.1372 16.8004 10.7999 16.8004H13.1999C13.8626 16.8004 14.3999 17.3376 14.3999 18.0004V20.4004C14.3999 21.0631 14.9372 21.6004 15.5999 21.6004H17.9999C18.6626 21.6004 19.1999 21.0631 19.1999 20.4004V12.4974L19.5514 12.8489C20.02 13.3175 20.7798 13.3175 21.2484 12.8489C21.7171 12.3803 21.7171 11.6205 21.2484 11.1519L12.8484 2.75186Z" fill="#9E9E9E"/>
</svg>
