<svg width="20" height="20" viewBox="0 0 20 20" fill="none" xmlns="http://www.w3.org/2000/svg">
<path fill-rule="evenodd" clip-rule="evenodd" d="M12.6368 5.0686C12.8993 5.0722 13.1625 5.07581 13.4266 5.07851C16.2644 5.07851 18.3334 7.10164 18.3334 9.89547V13.4841C18.3334 16.2779 16.2644 18.3011 13.4266 18.3011C12.2899 18.3251 11.1532 18.3332 10.0083 18.3332C8.86335 18.3332 7.71026 18.3251 6.57352 18.3011C3.73577 18.3011 1.66675 16.2779 1.66675 13.4841V9.89547C1.66675 7.10164 3.73577 5.07851 6.5817 5.07851C7.65301 5.06246 8.74886 5.0464 9.86106 5.0464V4.90992C9.86106 4.35597 9.39491 3.90639 8.83881 3.90639H8.0292C7.10509 3.90639 6.35272 3.16779 6.35272 2.26862C6.35272 1.93946 6.63077 1.6665 6.96606 1.6665C7.30954 1.6665 7.57941 1.93946 7.57941 2.26862C7.57941 2.50947 7.78386 2.70215 8.0292 2.70215H8.83881C10.0737 2.71018 11.0796 3.69765 11.0878 4.90189V5.05443C11.6033 5.05443 12.1188 5.0615 12.6368 5.0686ZM9.04361 12.288H8.18493V13.139C8.18493 13.4682 7.90688 13.7411 7.57158 13.7411C7.22811 13.7411 6.95824 13.4682 6.95824 13.139V12.288H6.09137C5.75608 12.288 5.47803 12.0231 5.47803 11.6859C5.47803 11.3568 5.75608 11.0838 6.09137 11.0838H6.95824V10.2408C6.95824 9.91167 7.22811 9.63871 7.57158 9.63871C7.90688 9.63871 8.18493 9.91167 8.18493 10.2408V11.0838H9.04361C9.37891 11.0838 9.65696 11.3568 9.65696 11.6859C9.65696 12.0231 9.37891 12.288 9.04361 12.288ZM12.5193 10.9314H12.6011C12.9364 10.9314 13.2144 10.6665 13.2144 10.3293C13.2144 10.0001 12.9364 9.72716 12.6011 9.72716H12.5193C12.1758 9.72716 11.906 10.0001 11.906 10.3293C11.906 10.6665 12.1758 10.9314 12.5193 10.9314ZM13.9178 13.693H13.9996C14.3349 13.693 14.6129 13.4281 14.6129 13.0909C14.6129 12.7617 14.3349 12.4888 13.9996 12.4888H13.9178C13.5735 12.4888 13.3045 12.7617 13.3045 13.0909C13.3045 13.4281 13.5735 13.693 13.9178 13.693Z" fill="#B548C6"/>
</svg>
