<svg width="24" height="24" viewBox="0 0 24 24" fill="none" xmlns="http://www.w3.org/2000/svg">
<path d="M10.8 2.3999C10.1373 2.3999 9.60005 2.93716 9.60005 3.5999C9.60005 4.26264 10.1373 4.7999 10.8 4.7999H13.2C13.8628 4.7999 14.4 4.26264 14.4 3.5999C14.4 2.93716 13.8628 2.3999 13.2 2.3999H10.8Z" fill="white"/>
<path fill-rule="evenodd" clip-rule="evenodd" d="M4.80005 5.9999C4.80005 4.67442 5.87457 3.5999 7.20005 3.5999C7.20005 5.58813 8.81182 7.1999 10.8 7.1999H13.2C15.1883 7.1999 16.8 5.58813 16.8 3.5999C18.1255 3.5999 19.2 4.67442 19.2 5.9999V19.1999C19.2 20.5254 18.1255 21.5999 16.8 21.5999H7.20005C5.87457 21.5999 4.80005 20.5254 4.80005 19.1999V5.9999ZM8.40005 10.7999C7.73731 10.7999 7.20005 11.3372 7.20005 11.9999C7.20005 12.6626 7.73731 13.1999 8.40005 13.1999H8.41205C9.07479 13.1999 9.61205 12.6626 9.61205 11.9999C9.61205 11.3372 9.07479 10.7999 8.41205 10.7999H8.40005ZM12 10.7999C11.3373 10.7999 10.8 11.3372 10.8 11.9999C10.8 12.6626 11.3373 13.1999 12 13.1999H15.6C16.2628 13.1999 16.8 12.6626 16.8 11.9999C16.8 11.3372 16.2628 10.7999 15.6 10.7999H12ZM8.40005 15.5999C7.73731 15.5999 7.20005 16.1372 7.20005 16.7999C7.20005 17.4626 7.73731 17.9999 8.40005 17.9999H8.41205C9.07479 17.9999 9.61205 17.4626 9.61205 16.7999C9.61205 16.1372 9.07479 15.5999 8.41205 15.5999H8.40005ZM12 15.5999C11.3373 15.5999 10.8 16.1372 10.8 16.7999C10.8 17.4626 11.3373 17.9999 12 17.9999H15.6C16.2628 17.9999 16.8 17.4626 16.8 16.7999C16.8 16.1372 16.2628 15.5999 15.6 15.5999H12Z" fill="white"/>
</svg>
