<svg width="44" height="17" viewBox="0 0 44 17" fill="none" xmlns="http://www.w3.org/2000/svg">
<g style="mix-blend-mode:darken">
<path d="M43.5869 3.12322H38.8211L37.2897 6.04513H38.0554L34.5088 13.098H38.0453L38.7405 11.3953H40.7557V13.098H44L43.5869 3.12322ZM39.7279 9.0275L40.7355 6.51868L40.7859 9.0275H39.7279Z" fill="#005CAA"/>
</g>
<g style="mix-blend-mode:darken">
<path d="M33.9849 13.1383L35.597 9.91415C35.1135 10.2495 34.5656 10.4809 33.9881 10.5936C33.4106 10.7064 32.8159 10.698 32.2418 10.5691C31.8378 10.42 31.4943 10.1416 31.2647 9.77719C31.0351 9.41279 30.9323 8.98278 30.9723 8.55395C31.0075 8.18587 31.1179 7.82893 31.2966 7.50526C31.4754 7.18159 31.7188 6.89809 32.0116 6.67232C32.3044 6.44655 32.6405 6.28333 32.999 6.19278C33.3575 6.10223 33.7308 6.08627 34.0957 6.14589C34.7985 6.20293 35.4618 6.49382 35.9799 6.97209L37.5013 4.21138L35.3753 3.10307L35.1134 3.43557C34.1131 3.13277 33.0361 3.21175 32.0907 3.65723C31.6148 3.82536 31.1587 4.04497 30.7305 4.31214C29.9818 4.7767 29.337 5.39066 28.8363 6.11567C28.8363 6.11567 26.932 8.85622 28.1814 11.2643C28.8061 12.6144 30.1965 13.3801 32.2922 13.3801C32.8663 13.4007 33.4395 13.3188 33.9849 13.1383Z" fill="#005CAA"/>
</g>
<g style="mix-blend-mode:darken">
<path d="M27.7179 3.77813C27.1836 3.32298 26.4941 3.09194 25.7934 3.1333H21.6423L20.1108 6.15596H20.8363L19.0529 13.1182H23.9496C24.8868 13.1146 25.7874 12.7543 26.4685 12.1106C27.8086 10.7806 27.9798 8.81591 26.4685 7.94941C28.3325 6.93178 28.806 4.89652 27.7179 3.77813ZM24.6146 10.0955C24.5072 10.2382 24.3639 10.3497 24.1993 10.4188C24.0346 10.4878 23.8546 10.5119 23.6776 10.4885H22.67L23.0932 8.9872H24.1511C24.2809 8.98411 24.4085 9.02025 24.5174 9.09087C24.6263 9.1615 24.7113 9.26334 24.7614 9.38307C24.8114 9.5028 24.8242 9.63485 24.798 9.76196C24.7718 9.88907 24.7079 10.0053 24.6146 10.0955ZM25.1688 6.74035C25.0158 6.93877 24.7985 7.07771 24.5542 7.13329H23.5063L23.7783 5.84362H24.8363C24.9395 5.84565 25.0396 5.87871 25.1238 5.93848C25.2079 5.99825 25.2721 6.08197 25.308 6.17873C25.3438 6.2755 25.3497 6.38082 25.3249 6.48099C25.3001 6.58116 25.2457 6.67154 25.1688 6.74035Z" fill="#005CAA"/>
</g>
<g style="mix-blend-mode:darken">
<g style="mix-blend-mode:darken">
<path d="M8.27203 12.6043H8.05037V9.98468C7.95969 7.58669 7.34508 6.90156 6.39798 5.95445C6.00223 5.59304 5.72735 5.11853 5.61072 4.59543C5.49408 4.07233 5.54134 3.526 5.74606 3.03069C5.95079 2.53538 6.30306 2.11512 6.75499 1.82703C7.20692 1.53893 7.7366 1.39698 8.27203 1.42045" fill="#005CAA"/>
</g>
<g style="mix-blend-mode:darken">
<path d="M8.27203 12.6043H8.49369V9.98468C8.58437 7.58669 9.19898 6.90156 10.136 5.95445C10.531 5.59358 10.8055 5.12004 10.9223 4.59797C11.0392 4.0759 10.9927 3.53052 10.7893 3.03571C10.5859 2.54091 10.2353 2.12057 9.78505 1.83165C9.33478 1.54273 8.8066 1.39918 8.27203 1.42045" fill="#005CAA"/>
</g>
<g style="mix-blend-mode:darken">
<path d="M7.91938 12.6043C8.08059 9.98468 7.80855 8.161 7.02265 6.88141C6.76331 6.47689 6.41961 6.1332 6.0151 5.87385C5.74823 5.70263 5.44689 5.59237 5.13254 5.55093C4.81819 5.50949 4.49856 5.5379 4.19645 5.63411C3.89433 5.73033 3.61714 5.89199 3.38465 6.10759C3.15216 6.32318 2.97007 6.58739 2.85137 6.88141C2.72223 7.30527 2.68446 7.7517 2.74054 8.19123C2.8413 9.03758 3.60704 9.34992 4.34255 9.56151C5.07807 9.77309 7.36522 10.0351 7.56673 12.6547L7.91938 12.6043Z" fill="#005CAA"/>
</g>
<g style="mix-blend-mode:darken">
<path d="M8.62467 12.6043C8.46346 9.98468 8.7355 8.161 9.5214 6.88141C9.7779 6.47462 10.1222 6.13036 10.529 5.87385C10.7958 5.70263 11.0972 5.59237 11.4115 5.55093C11.7259 5.50949 12.0455 5.5379 12.3476 5.63411C12.6497 5.73033 12.9269 5.89199 13.1594 6.10759C13.3919 6.32318 13.574 6.58739 13.6927 6.88141C13.8218 7.30527 13.8596 7.7517 13.8035 8.19123C13.7028 9.03758 12.937 9.34992 12.2015 9.56151C11.466 9.77309 9.17883 10.0351 8.97732 12.6547L8.62467 12.6043Z" fill="#005CAA"/>
</g>
<g style="mix-blend-mode:darken">
<path d="M7.38539 12.6043C7.42274 12.1705 7.3366 11.735 7.13691 11.3482C6.93723 10.9613 6.63215 10.6388 6.25693 10.4179C5.77771 10.1583 5.26105 9.97476 4.72544 9.87385C2.95214 9.47083 2.91184 8.9872 2.91184 8.9872C2.66258 9.31634 2.52768 9.7179 2.52768 10.1308C2.52768 10.5436 2.66258 10.9452 2.91184 11.2744C3.1571 11.5529 3.47955 11.7523 3.83829 11.8474C4.19704 11.9425 4.57594 11.9289 4.92695 11.8084C6.02519 11.5968 6.75063 11.5162 7.0529 12.6043H7.38539Z" fill="#005CAA"/>
</g>
<g style="mix-blend-mode:darken">
<path d="M9.14862 12.6043C9.11127 12.1705 9.19741 11.735 9.3971 11.3482C9.59679 10.9613 9.90186 10.6388 10.2771 10.4179C10.7556 10.1568 11.2725 9.97315 11.8086 9.87385C13.5819 9.47083 13.6222 8.9872 13.6222 8.9872C13.8714 9.31634 14.0063 9.7179 14.0063 10.1308C14.0063 10.5436 13.8714 10.9452 13.6222 11.2744C13.3769 11.5529 13.0545 11.7523 12.6957 11.8474C12.337 11.9425 11.9581 11.9289 11.6071 11.8084C10.5088 11.5968 9.78338 11.5162 9.48111 12.6043H9.14862Z" fill="#005CAA"/>
</g>
<g style="mix-blend-mode:darken">
<path d="M8.27204 16.564C5.95788 16.5481 3.67617 16.0182 1.59194 15.0124H1.51133V14.9318C-0.503778 10.166 -0.503778 5.71264 1.51133 1.69249V1.63204H1.57179C3.64063 0.559712 5.93677 0 8.267 0C10.5972 0 12.8934 0.559712 14.9622 1.63204H15.0327V1.71264C17.0479 6.40786 17.0479 10.8613 15.0327 14.9519V15.0225H14.9521C12.8665 16.0232 10.5852 16.5496 8.27204 16.564ZM1.86398 14.6295C3.86418 15.5944 6.05632 16.0955 8.27708 16.0955C10.4978 16.0955 12.69 15.5944 14.6902 14.6295C16.6448 10.7101 16.6348 6.43808 14.6902 1.9343C12.7058 0.915898 10.5075 0.384715 8.27708 0.384715C6.04666 0.384715 3.84832 0.915898 1.86398 1.9343C-0.100756 5.78317 -0.100756 10.0552 1.86398 14.6295Z" fill="#005CAA"/>
</g>
<g style="mix-blend-mode:darken">
<path d="M4.83627 14.1257L4.66498 14.7907H4.52392C4.52861 14.7371 4.52861 14.6832 4.52392 14.6295C4.46972 14.6736 4.40473 14.7025 4.33566 14.7131C4.26659 14.7237 4.19593 14.7157 4.13098 14.69C4.05446 14.6727 3.9833 14.6371 3.92362 14.5862C3.86394 14.5353 3.81753 14.4706 3.78841 14.3978C3.72771 14.2423 3.72771 14.0696 3.78841 13.9142C3.83559 13.7443 3.9385 13.5953 4.0806 13.491C4.14363 13.449 4.21531 13.4217 4.29032 13.4113C4.36533 13.4008 4.44173 13.4074 4.51385 13.4305C4.63445 13.4617 4.73882 13.5373 4.80604 13.6421C4.87126 13.7473 4.8963 13.8726 4.87657 13.9948H4.59445C4.59445 13.8335 4.59445 13.7429 4.44332 13.7126C4.40885 13.6978 4.37046 13.6947 4.33406 13.7038C4.29765 13.7129 4.26524 13.7337 4.24181 13.763C4.16714 13.8434 4.11198 13.94 4.0806 14.0451C4.05149 14.1438 4.05149 14.2488 4.0806 14.3474C4.09035 14.3864 4.1105 14.4219 4.13889 14.4503C4.16728 14.4787 4.20286 14.4989 4.24181 14.5086C4.29364 14.5288 4.35119 14.5288 4.40302 14.5086C4.43113 14.4953 4.45577 14.4756 4.47499 14.4511C4.49422 14.4266 4.50752 14.398 4.51385 14.3676L4.27203 14.297L4.36271 13.9847L4.83627 14.1257Z" fill="#005CAA"/>
</g>
<g style="mix-blend-mode:darken">
<path d="M5.37028 14.428L5.25945 14.9217L4.94711 14.8512L5.24937 13.6119L5.7733 13.7227C5.85552 13.7323 5.93464 13.7598 6.00504 13.8033C6.06569 13.836 6.11228 13.8898 6.13602 13.9545C6.16059 14.0263 6.16059 14.1043 6.13602 14.1761C6.12842 14.2477 6.09779 14.3149 6.04874 14.3676C5.99968 14.4203 5.93485 14.4556 5.86398 14.4683L6.01512 15.0728L5.67255 15.0124C5.67255 14.831 5.59194 14.6497 5.56171 14.4683L5.37028 14.428ZM5.48111 13.894L5.41058 14.2164H5.59194C5.63526 14.2241 5.67961 14.2241 5.72292 14.2164H5.80353C5.81593 14.184 5.81593 14.1481 5.80353 14.1157C5.81077 14.0999 5.81452 14.0827 5.81452 14.0653C5.81452 14.0479 5.81077 14.0307 5.80353 14.0149C5.80353 14.0149 5.80353 14.0149 5.74307 13.9545H5.61209L5.48111 13.894Z" fill="#005CAA"/>
</g>
<g style="mix-blend-mode:darken">
<path d="M7.38539 13.9343L7.33501 14.7303C7.33115 14.8271 7.31071 14.9225 7.27456 15.0124C7.23046 15.0773 7.16699 15.1267 7.0932 15.1534C6.98346 15.1754 6.87044 15.1754 6.7607 15.1534C6.65362 15.151 6.54918 15.1197 6.45844 15.0628C6.39045 15.024 6.33728 14.9638 6.3073 14.8915C6.28608 14.7918 6.28608 14.6889 6.3073 14.5892L6.41813 13.7932L6.73048 13.8436L6.6398 14.6295C6.62918 14.6793 6.62918 14.7308 6.6398 14.7807C6.64797 14.8173 6.66952 14.8497 6.70025 14.8713C6.74315 14.8829 6.78833 14.8829 6.83123 14.8713C6.87767 14.8817 6.92585 14.8817 6.97229 14.8713C6.97229 14.8713 7.04282 14.8713 7.05289 14.8008C7.05668 14.7505 7.05668 14.7 7.05289 14.6497L7.12342 13.8537L7.38539 13.9343Z" fill="#005CAA"/>
</g>
<g style="mix-blend-mode:darken">
<path d="M7.84887 14.7605V15.234H7.52645L7.5869 13.9545H8.07053C8.15425 13.9455 8.23869 13.9455 8.32242 13.9545C8.38407 13.9831 8.43644 14.0285 8.47355 14.0854C8.52248 14.1493 8.55062 14.2267 8.55415 14.3071C8.56843 14.3701 8.56843 14.4355 8.55415 14.4985C8.5362 14.555 8.50096 14.6043 8.4534 14.6396C8.41425 14.6707 8.3699 14.6945 8.32242 14.7101C8.25237 14.7218 8.18088 14.7218 8.11083 14.7101L7.84887 14.7605ZM7.84887 14.5288H8.0403C8.06555 14.5405 8.09306 14.5466 8.1209 14.5466C8.14875 14.5466 8.17626 14.5405 8.20151 14.5288C8.21554 14.4931 8.21554 14.4535 8.20151 14.4179C8.21886 14.376 8.21886 14.3289 8.20151 14.2869C8.15285 14.2683 8.09904 14.2683 8.05038 14.2869H7.85894L7.84887 14.5288Z" fill="#005CAA"/>
</g>
<g style="mix-blend-mode:darken">
<path d="M9.1486 13.9242L9.72291 13.8738C9.79925 13.8572 9.87829 13.8572 9.95464 13.8738C10.0104 13.8941 10.0617 13.9249 10.1058 13.9645C10.1472 14.0125 10.172 14.0726 10.1763 14.1358C10.1868 14.2021 10.1733 14.27 10.1382 14.3273C10.1031 14.3845 10.0487 14.4274 9.98487 14.4482C10.0673 14.4507 10.146 14.4829 10.2065 14.5388C10.2554 14.5895 10.2901 14.652 10.3073 14.7202C10.312 14.767 10.3073 14.8143 10.2935 14.8593C10.2796 14.9043 10.2569 14.9461 10.2267 14.9822C10.1325 15.0753 10.0065 15.1293 9.87404 15.1333L9.23928 15.1937L9.1486 13.9242ZM9.46094 14.1257V14.4079H9.69268C9.72133 14.407 9.74951 14.4002 9.77549 14.3881C9.80147 14.376 9.82471 14.3587 9.84381 14.3373C9.84764 14.3038 9.84764 14.27 9.84381 14.2366C9.84924 14.21 9.84924 14.1826 9.84381 14.156C9.82425 14.1491 9.80292 14.1491 9.78336 14.156C9.74377 14.1453 9.70204 14.1453 9.66245 14.156L9.46094 14.1257ZM9.46094 14.6295V14.9419H9.70275C9.76674 14.941 9.82797 14.9157 9.87404 14.8713C9.88465 14.8529 9.89024 14.8321 9.89024 14.8109C9.89024 14.7897 9.88465 14.7688 9.87404 14.7504C9.87372 14.7311 9.86785 14.7123 9.85713 14.6962C9.84641 14.6801 9.8313 14.6675 9.81359 14.6597C9.78833 14.648 9.76082 14.6419 9.73298 14.6419C9.70514 14.6419 9.67763 14.648 9.65238 14.6597L9.46094 14.6295Z" fill="#005CAA"/>
</g>
<g style="mix-blend-mode:darken">
<path d="M11.4156 14.0451L11.1133 14.1358C11.1133 13.9645 10.9824 13.8839 10.8514 13.9141C10.7204 13.9444 10.6499 14.0955 10.7002 14.3675C10.7088 14.4831 10.7548 14.5927 10.8312 14.6799C10.857 14.7025 10.8878 14.7189 10.921 14.7276C10.9542 14.7364 10.989 14.7373 11.0227 14.7303C11.1536 14.7303 11.2141 14.6094 11.204 14.4381H11.4962C11.5088 14.5047 11.5072 14.5732 11.4916 14.6392C11.4759 14.7051 11.4466 14.7671 11.4055 14.821C11.3221 14.9254 11.2042 14.9968 11.073 15.0225C10.9936 15.0392 10.9117 15.0398 10.8321 15.0243C10.7524 15.0087 10.6768 14.9772 10.6096 14.9318C10.5412 14.876 10.4846 14.8072 10.4431 14.7294C10.4016 14.6515 10.376 14.5662 10.3677 14.4784C10.3378 14.3105 10.3625 14.1374 10.4383 13.9847C10.4778 13.9167 10.5316 13.858 10.5959 13.8128C10.6603 13.7676 10.7337 13.7368 10.8111 13.7227C10.934 13.6878 11.0656 13.7019 11.1784 13.762C11.2911 13.8221 11.3761 13.9236 11.4156 14.0451Z" fill="#005CAA"/>
</g>
<g style="mix-blend-mode:darken">
<path d="M12.0604 13.3801C12.3157 13.7496 12.5776 14.1123 12.8463 14.4683L12.5138 14.5791L12.3627 14.3474L11.9395 14.4784C11.9446 14.569 11.9446 14.6598 11.9395 14.7504L11.6675 14.8209C11.6675 14.3675 11.738 13.9242 11.7481 13.4708L12.0604 13.3801ZM11.9496 14.2265L12.2216 14.1459L11.9597 13.7529C11.9597 13.9141 11.9597 14.0653 11.9496 14.2265Z" fill="#005CAA"/>
</g>
</g>
</svg>
