<svg width="11" height="13" viewBox="0 0 11 13" fill="none" xmlns="http://www.w3.org/2000/svg">
<path d="M4.71429 0C3.84641 0 3.14286 0.727538 3.14286 1.625V8.125C3.14286 9.02246 3.84641 9.75 4.71429 9.75H9.42857C10.2964 9.75 11 9.02246 11 8.125V3.58655C11 3.15557 10.8344 2.74225 10.5397 2.4375L8.64286 0.475951C8.34816 0.171205 7.94846 0 7.53169 0H4.71429Z" fill="#757575"/>
<path d="M0 4.875C0 3.97754 0.703552 3.25 1.57143 3.25V11.375H7.85714C7.85714 12.2725 7.15359 13 6.28571 13H1.57143C0.703552 13 0 12.2725 0 11.375V4.875Z" fill="#757575"/>
</svg>
