<svg width="11" height="11" viewBox="0 0 11 11" fill="none" xmlns="http://www.w3.org/2000/svg">
<path d="M6.92215 2.52216C7.35173 2.09258 8.04821 2.09258 8.47778 2.52216C8.90736 2.95173 8.90736 3.64822 8.47778 4.07779L6.82778 5.72779C6.39821 6.15737 5.70173 6.15737 5.27215 5.72779C5.05736 5.513 4.70912 5.513 4.49433 5.72779C4.27954 5.94258 4.27954 6.29082 4.49433 6.50561C5.35348 7.36476 6.74645 7.36476 7.6056 6.50561L9.2556 4.85561C10.1148 3.99646 10.1148 2.60349 9.2556 1.74434C8.39645 0.885187 7.00348 0.885187 6.14433 1.74434L5.31933 2.56934C5.10454 2.78413 5.10454 3.13237 5.31933 3.34716C5.53412 3.56195 5.88236 3.56195 6.09715 3.34716L6.92215 2.52216Z" fill="#757575"/>
<path d="M4.17216 5.27216C4.60173 4.84258 5.29822 4.84258 5.72779 5.27216C5.94258 5.48695 6.29082 5.48695 6.50561 5.27216C6.7204 5.05737 6.7204 4.70913 6.50561 4.49434C5.64646 3.63519 4.25349 3.63519 3.39434 4.49434L1.74434 6.14434C0.885187 7.00349 0.885187 8.39646 1.74434 9.25561C2.60349 10.1148 3.99646 10.1148 4.85561 9.25561L5.68061 8.43061C5.8954 8.21582 5.8954 7.86758 5.68061 7.65279C5.46582 7.438 5.11758 7.438 4.90279 7.65279L4.07779 8.47779C3.64822 8.90737 2.95173 8.90737 2.52216 8.47779C2.09258 8.04822 2.09258 7.35174 2.52216 6.92216L4.17216 5.27216Z" fill="#757575"/>
</svg>
