<svg width="25" height="25" viewBox="0 0 25 25" fill="none" xmlns="http://www.w3.org/2000/svg">
<path fill-rule="evenodd" clip-rule="evenodd" d="M14.1258 1.30792C14.6461 1.47194 15 1.9545 15 2.50009V8.75009L20 8.75009C20.4661 8.75009 20.8935 9.00941 21.1087 9.42283C21.324 9.83624 21.2913 10.3351 21.024 10.7169L12.274 23.2169C11.9612 23.6639 11.3946 23.8563 10.8742 23.6923C10.3539 23.5282 10 23.0457 10 22.5001L10 16.2501H5C4.53391 16.2501 4.10653 15.9908 3.89128 15.5774C3.67603 15.1639 3.70868 14.6651 3.97596 14.2833L12.726 1.78326C13.0388 1.3363 13.6055 1.14389 14.1258 1.30792Z" fill="white"/>
</svg>
