<svg width="24" height="24" viewBox="0 0 24 24" fill="none" xmlns="http://www.w3.org/2000/svg">
<path fill-rule="evenodd" clip-rule="evenodd" d="M6.0001 2.3999C4.67461 2.3999 3.6001 3.47442 3.6001 4.7999V21.5999L7.8001 19.1999L12.0001 21.5999L16.2001 19.1999L20.4001 21.5999V4.7999C20.4001 3.47442 19.3256 2.3999 18.0001 2.3999H6.0001ZM9.0001 5.9999C8.00598 5.9999 7.2001 6.80579 7.2001 7.7999C7.2001 8.79401 8.00598 9.5999 9.0001 9.5999C9.99421 9.5999 10.8001 8.79401 10.8001 7.7999C10.8001 6.80579 9.99421 5.9999 9.0001 5.9999ZM16.4486 6.35137C15.98 5.88275 15.2202 5.88275 14.7516 6.35137L7.55157 13.5514C7.08294 14.02 7.08294 14.7798 7.55157 15.2484C8.0202 15.7171 8.78 15.7171 9.24862 15.2484L16.4486 8.04843C16.9173 7.5798 16.9173 6.82 16.4486 6.35137ZM15.0001 11.9999C14.006 11.9999 13.2001 12.8058 13.2001 13.7999C13.2001 14.794 14.006 15.5999 15.0001 15.5999C15.9942 15.5999 16.8001 14.794 16.8001 13.7999C16.8001 12.8058 15.9942 11.9999 15.0001 11.9999Z" fill="#9E9E9E"/>
</svg>
