<svg width="24" height="24" viewBox="0 0 24 24" fill="none" xmlns="http://www.w3.org/2000/svg">
<path fill-rule="evenodd" clip-rule="evenodd" d="M6.0001 2.40039C4.67461 2.40039 3.6001 3.47491 3.6001 4.80039V21.6004L7.8001 19.2004L12.0001 21.6004L16.2001 19.2004L20.4001 21.6004V4.80039C20.4001 3.47491 19.3256 2.40039 18.0001 2.40039H6.0001ZM9.0001 6.00039C8.00598 6.00039 7.2001 6.80628 7.2001 7.80039C7.2001 8.7945 8.00598 9.60039 9.0001 9.60039C9.99421 9.60039 10.8001 8.7945 10.8001 7.80039C10.8001 6.80628 9.99421 6.00039 9.0001 6.00039ZM16.4486 6.35186C15.98 5.88323 15.2202 5.88323 14.7516 6.35186L7.55157 13.5519C7.08294 14.0205 7.08294 14.7803 7.55157 15.2489C8.0202 15.7175 8.78 15.7175 9.24862 15.2489L16.4486 8.04892C16.9173 7.58029 16.9173 6.82049 16.4486 6.35186ZM15.0001 12.0004C14.006 12.0004 13.2001 12.8063 13.2001 13.8004C13.2001 14.7945 14.006 15.6004 15.0001 15.6004C15.9942 15.6004 16.8001 14.7945 16.8001 13.8004C16.8001 12.8063 15.9942 12.0004 15.0001 12.0004Z" fill="#213D64"/>
</svg>
