<svg width="12" height="12" viewBox="0 0 12 12" fill="none" xmlns="http://www.w3.org/2000/svg">
<g clip-path="url(#clip0_47_1282)">
<path d="M10.2445 1.75572C7.90391 -0.584913 4.0961 -0.584913 1.75547 1.75572C-0.585157 4.09583 -0.585157 7.90465 1.75547 10.2448C2.92554 11.4153 4.46277 12.0001 5.99999 12.0001C7.53722 12.0001 9.07396 11.4153 10.2445 10.2448C12.5851 7.90465 12.5851 4.09583 10.2445 1.75572ZM9.35511 4.35294L5.85344 7.85463C5.75589 7.95218 5.62784 8.00121 5.49976 8.00121C5.37171 8.00121 5.24363 7.95218 5.14609 7.85463L3.14514 5.85368C2.94955 5.6581 2.94955 5.34194 3.14514 5.14635C3.34072 4.95077 3.65688 4.95077 3.85247 5.14635L5.49976 6.79365L8.64778 3.64563C8.84336 3.45005 9.15952 3.45005 9.35511 3.64563C9.55069 3.8412 9.55069 4.15736 9.35511 4.35294Z" fill="#22B07D"/>
</g>
<defs>
<clipPath id="clip0_47_1282">
<rect width="12" height="12" fill="white"/>
</clipPath>
</defs>
</svg>
