<svg width="40" height="40" viewBox="0 0 40 40" fill="none" xmlns="http://www.w3.org/2000/svg">
<rect width="40" height="40" rx="20" fill="#E9F7F2"/>
<path fill-rule="evenodd" clip-rule="evenodd" d="M10.2076 13.8181C13.968 13.767 17.3941 12.3323 20 10C22.6059 12.3323 26.032 13.767 29.7924 13.8181C29.9289 14.6315 30 15.4672 30 16.3195C30 22.8505 25.826 28.4067 20 30.4659C14.174 28.4067 10 22.8505 10 16.3195C10 15.4672 10.0711 14.6315 10.2076 13.8181ZM20 16.3194C20.4142 16.3194 20.75 16.6552 20.75 17.0694V19.3194H23C23.4142 19.3194 23.75 19.6552 23.75 20.0694C23.75 20.4836 23.4142 20.8194 23 20.8194H20.75V23.0694C20.75 23.4836 20.4142 23.8194 20 23.8194C19.5858 23.8194 19.25 23.4836 19.25 23.0694V20.8194H17C16.5858 20.8194 16.25 20.4836 16.25 20.0694C16.25 19.6552 16.5858 19.3194 17 19.3194H19.25V17.0694C19.25 16.6552 19.5858 16.3194 20 16.3194Z" fill="#22B07D"/>
</svg>
