<svg width="44" height="17" viewBox="0 0 44 17" fill="none" xmlns="http://www.w3.org/2000/svg">
<g style="mix-blend-mode:darken">
<path d="M43.5869 3.12322H38.8212L37.2897 6.04514H38.0554L34.5088 13.098H38.0454L38.7406 11.3953H40.7557V13.098H44L43.5869 3.12322ZM39.728 9.02751L40.7355 6.51869L40.7859 9.02751H39.728Z" fill="#005CAA"/>
</g>
<g style="mix-blend-mode:darken">
<path d="M33.9849 13.1383L35.597 9.91416C35.1135 10.2495 34.5657 10.4809 33.9881 10.5937C33.4106 10.7064 32.816 10.698 32.2418 10.5691C31.8378 10.42 31.4943 10.1416 31.2647 9.7772C31.0352 9.4128 30.9324 8.98278 30.9723 8.55396C31.0075 8.18587 31.1179 7.82894 31.2967 7.50527C31.4754 7.1816 31.7188 6.89809 32.0116 6.67232C32.3045 6.44656 32.6405 6.28334 32.999 6.19278C33.3575 6.10223 33.7308 6.08627 34.0957 6.1459C34.7985 6.20294 35.4618 6.49382 35.9799 6.97209L37.5013 4.21139L35.3753 3.10307L35.1134 3.43557C34.1131 3.13277 33.0361 3.21175 32.0907 3.65723C31.6148 3.82537 31.1587 4.04497 30.7305 4.31214C29.9818 4.7767 29.337 5.39066 28.8363 6.11567C28.8363 6.11567 26.932 8.85622 28.1814 11.2643C28.8061 12.6144 30.1965 13.3802 32.2922 13.3802C32.8663 13.4007 33.4395 13.3188 33.9849 13.1383Z" fill="#005CAA"/>
</g>
<g style="mix-blend-mode:darken">
<path d="M27.7179 3.77813C27.1836 3.32298 26.4941 3.09194 25.7934 3.1333H21.6423L20.1108 6.15597H20.8363L19.0529 13.1182H23.9496C24.8868 13.1146 25.7874 12.7544 26.4685 12.1106C27.8085 10.7807 27.9798 8.81592 26.4685 7.94942C28.3325 6.93179 28.806 4.89652 27.7179 3.77813ZM24.6146 10.0955C24.5072 10.2382 24.3639 10.3497 24.1992 10.4188C24.0346 10.4878 23.8546 10.5119 23.6776 10.4885H22.67L23.0932 8.9872H24.1511C24.2809 8.98412 24.4085 9.02025 24.5174 9.09088C24.6263 9.16151 24.7113 9.26335 24.7614 9.38308C24.8114 9.50281 24.8242 9.63486 24.798 9.76197C24.7718 9.88907 24.7079 10.0053 24.6146 10.0955ZM25.1687 6.74035C25.0158 6.93877 24.7984 7.07771 24.5541 7.1333H23.5063L23.7783 5.84363H24.8363C24.9394 5.84566 25.0396 5.87871 25.1237 5.93848C25.2079 5.99825 25.2721 6.08197 25.3079 6.17874C25.3438 6.2755 25.3497 6.38083 25.3249 6.481C25.3001 6.58117 25.2457 6.67154 25.1687 6.74035Z" fill="#005CAA"/>
</g>
<g style="mix-blend-mode:darken">
<g style="mix-blend-mode:darken">
<path d="M8.27207 12.6043H8.05041V9.98469C7.95973 7.5867 7.34512 6.90156 6.39801 5.95446C6.00226 5.59304 5.72739 5.11854 5.61075 4.59543C5.49412 4.07233 5.54137 3.526 5.7461 3.03069C5.95083 2.53539 6.30309 2.11513 6.75502 1.82703C7.20696 1.53894 7.73663 1.39698 8.27207 1.42045" fill="#005CAA"/>
</g>
<g style="mix-blend-mode:darken">
<path d="M8.27207 12.6043H8.49373V9.98469C8.58441 7.5867 9.19902 6.90156 10.136 5.95446C10.531 5.59359 10.8055 5.12005 10.9224 4.59797C11.0392 4.0759 10.9928 3.53053 10.7894 3.03572C10.5859 2.54091 10.2354 2.12058 9.78509 1.83166C9.33482 1.54273 8.80663 1.39918 8.27207 1.42045" fill="#005CAA"/>
</g>
<g style="mix-blend-mode:darken">
<path d="M7.91942 12.6043C8.08062 9.98469 7.80858 8.16101 7.02269 6.88141C6.76334 6.4769 6.41965 6.1332 6.01513 5.87385C5.74827 5.70263 5.44692 5.59238 5.13257 5.55094C4.81822 5.5095 4.4986 5.5379 4.19648 5.63412C3.89436 5.73033 3.61718 5.892 3.38468 6.10759C3.15219 6.32318 2.9701 6.5874 2.8514 6.88141C2.72227 7.30527 2.68449 7.7517 2.74057 8.19124C2.84133 9.03758 3.60707 9.34993 4.34259 9.56151C5.0781 9.7731 7.36526 10.0351 7.56677 12.6547L7.91942 12.6043Z" fill="#005CAA"/>
</g>
<g style="mix-blend-mode:darken">
<path d="M8.62471 12.6043C8.4635 9.98469 8.73554 8.16101 9.52143 6.88141C9.77794 6.47462 10.1222 6.13036 10.529 5.87385C10.7959 5.70263 11.0972 5.59238 11.4116 5.55094C11.7259 5.5095 12.0455 5.5379 12.3476 5.63412C12.6498 5.73033 12.9269 5.892 13.1594 6.10759C13.3919 6.32318 13.574 6.5874 13.6927 6.88141C13.8219 7.30527 13.8596 7.7517 13.8036 8.19124C13.7028 9.03758 12.9371 9.34993 12.2015 9.56151C11.466 9.7731 9.17886 10.0351 8.97735 12.6547L8.62471 12.6043Z" fill="#005CAA"/>
</g>
<g style="mix-blend-mode:darken">
<path d="M7.3854 12.6043C7.42275 12.1706 7.3366 11.7351 7.13692 11.3482C6.93723 10.9613 6.63215 10.6388 6.25693 10.4179C5.77771 10.1583 5.26105 9.97477 4.72545 9.87385C2.95215 9.47083 2.91184 8.9872 2.91184 8.9872C2.66258 9.31634 2.52769 9.71791 2.52769 10.1308C2.52769 10.5437 2.66258 10.9452 2.91184 11.2744C3.15711 11.5529 3.47955 11.7523 3.8383 11.8474C4.19704 11.9425 4.57594 11.9289 4.92696 11.8084C6.0252 11.5968 6.75064 11.5162 7.0529 12.6043H7.3854Z" fill="#005CAA"/>
</g>
<g style="mix-blend-mode:darken">
<path d="M9.14859 12.6043C9.11124 12.1706 9.19739 11.7351 9.39707 11.3482C9.59676 10.9613 9.90184 10.6388 10.2771 10.4179C10.7556 10.1568 11.2725 9.97315 11.8085 9.87385C13.5818 9.47083 13.6221 8.9872 13.6221 8.9872C13.8714 9.31634 14.0063 9.71791 14.0063 10.1308C14.0063 10.5437 13.8714 10.9452 13.6221 11.2744C13.3769 11.5529 13.0544 11.7523 12.6957 11.8474C12.3369 11.9425 11.958 11.9289 11.607 11.8084C10.5088 11.5968 9.78336 11.5162 9.48109 12.6043H9.14859Z" fill="#005CAA"/>
</g>
<g style="mix-blend-mode:darken">
<path d="M8.27204 16.564C5.95788 16.5482 3.67617 16.0182 1.59194 15.0124H1.51134V14.9318C-0.503779 10.166 -0.503779 5.71264 1.51134 1.69249V1.63204H1.57179C3.64063 0.559712 5.93677 0 8.26701 0C10.5972 0 12.8934 0.559712 14.9622 1.63204H15.0328V1.71264C17.0479 6.40786 17.0479 10.8613 15.0328 14.9519V15.0225H14.9521C12.8666 16.0232 10.5852 16.5496 8.27204 16.564ZM1.86398 14.6295C3.86419 15.5944 6.05632 16.0955 8.27708 16.0955C10.4978 16.0955 12.69 15.5944 14.6902 14.6295C16.6448 10.7101 16.6348 6.43809 14.6902 1.93431C12.7058 0.915899 10.5075 0.384715 8.27708 0.384715C6.04667 0.384715 3.84832 0.915899 1.86398 1.93431C-0.100756 5.78317 -0.100756 10.0552 1.86398 14.6295Z" fill="#005CAA"/>
</g>
<g style="mix-blend-mode:darken">
<path d="M4.8363 14.1258L4.66502 14.7907H4.52396C4.52864 14.7371 4.52864 14.6832 4.52396 14.6295C4.46975 14.6736 4.40477 14.7025 4.33569 14.7131C4.26662 14.7237 4.19597 14.7158 4.13101 14.69C4.0545 14.6727 3.98333 14.6371 3.92365 14.5862C3.86397 14.5353 3.81757 14.4706 3.78844 14.3978C3.72774 14.2423 3.72774 14.0697 3.78844 13.9142C3.83563 13.7443 3.93854 13.5953 4.08063 13.491C4.14366 13.449 4.21534 13.4218 4.29035 13.4113C4.36536 13.4008 4.44177 13.4074 4.51388 13.4305C4.63448 13.4617 4.73885 13.5373 4.80607 13.6421C4.87129 13.7473 4.89634 13.8726 4.8766 13.9948H4.59449C4.59449 13.8336 4.59449 13.7429 4.44335 13.7127C4.40888 13.6978 4.3705 13.6947 4.33409 13.7038C4.29768 13.7129 4.26527 13.7337 4.24184 13.763C4.16718 13.8435 4.11202 13.94 4.08063 14.0451C4.05152 14.1438 4.05152 14.2488 4.08063 14.3474C4.09038 14.3864 4.11053 14.4219 4.13892 14.4503C4.16732 14.4787 4.20289 14.4989 4.24184 14.5086C4.29367 14.5289 4.35122 14.5289 4.40305 14.5086C4.43116 14.4953 4.4558 14.4756 4.47503 14.4511C4.49426 14.4266 4.50756 14.398 4.51388 14.3676L4.27207 14.297L4.36275 13.9847L4.8363 14.1258Z" fill="#005CAA"/>
</g>
<g style="mix-blend-mode:darken">
<path d="M5.37025 14.428L5.25942 14.9217L4.94708 14.8512L5.24935 13.6119L5.77327 13.7227C5.8555 13.7323 5.93461 13.7598 6.00501 13.8033C6.06566 13.836 6.11226 13.8898 6.136 13.9545C6.16056 14.0263 6.16056 14.1043 6.136 14.1761C6.1284 14.2477 6.09777 14.3149 6.04871 14.3676C5.99965 14.4203 5.93482 14.4556 5.86395 14.4683L6.01509 15.0729L5.67252 15.0124C5.67252 14.831 5.59191 14.6497 5.56169 14.4683L5.37025 14.428ZM5.48108 13.894L5.41055 14.2164H5.59192C5.63523 14.2242 5.67958 14.2242 5.7229 14.2164H5.8035C5.81591 14.184 5.81591 14.1481 5.8035 14.1157C5.81075 14.0999 5.8145 14.0827 5.8145 14.0653C5.8145 14.0479 5.81075 14.0307 5.8035 14.0149C5.8035 14.0149 5.8035 14.0149 5.74305 13.9545H5.61207L5.48108 13.894Z" fill="#005CAA"/>
</g>
<g style="mix-blend-mode:darken">
<path d="M7.38539 13.9343L7.33501 14.7303C7.33116 14.8271 7.31071 14.9225 7.27456 15.0124C7.23047 15.0773 7.167 15.1267 7.0932 15.1535C6.98346 15.1754 6.87045 15.1754 6.76071 15.1535C6.65362 15.151 6.54919 15.1197 6.45844 15.0628C6.39045 15.024 6.33729 14.9638 6.30731 14.8915C6.28608 14.7919 6.28608 14.6889 6.30731 14.5892L6.41814 13.7933L6.73048 13.8436L6.6398 14.6295C6.62919 14.6793 6.62919 14.7308 6.6398 14.7807C6.64797 14.8174 6.66953 14.8497 6.70025 14.8713C6.74315 14.8829 6.78834 14.8829 6.83124 14.8713C6.87768 14.8818 6.92585 14.8818 6.97229 14.8713C6.97229 14.8713 7.04282 14.8713 7.0529 14.8008C7.05668 14.7505 7.05668 14.7 7.0529 14.6497L7.12343 13.8537L7.38539 13.9343Z" fill="#005CAA"/>
</g>
<g style="mix-blend-mode:darken">
<path d="M7.84884 14.7605V15.2341H7.52642L7.58687 13.9545H8.0705C8.15423 13.9455 8.23867 13.9455 8.32239 13.9545C8.38405 13.9831 8.43642 14.0285 8.47353 14.0854C8.52246 14.1493 8.55059 14.2267 8.55413 14.3071C8.5684 14.3701 8.5684 14.4355 8.55413 14.4985C8.53618 14.555 8.50093 14.6043 8.45337 14.6396C8.41422 14.6707 8.36987 14.6945 8.32239 14.7101C8.25234 14.7218 8.18085 14.7218 8.1108 14.7101L7.84884 14.7605ZM7.84884 14.5288H8.04028C8.06553 14.5405 8.09304 14.5466 8.12088 14.5466C8.14872 14.5466 8.17623 14.5405 8.20149 14.5288C8.21552 14.4932 8.21552 14.4535 8.20149 14.4179C8.21884 14.376 8.21884 14.3289 8.20149 14.287C8.15283 14.2684 8.09901 14.2684 8.05035 14.287H7.85892L7.84884 14.5288Z" fill="#005CAA"/>
</g>
<g style="mix-blend-mode:darken">
<path d="M9.14864 13.9242L9.72294 13.8739C9.79929 13.8572 9.87833 13.8572 9.95468 13.8739C10.0104 13.8941 10.0617 13.9249 10.1058 13.9645C10.1473 14.0125 10.172 14.0726 10.1763 14.1358C10.1868 14.2022 10.1733 14.27 10.1382 14.3273C10.1031 14.3845 10.0488 14.4274 9.98491 14.4482C10.0673 14.4507 10.146 14.4829 10.2066 14.5388C10.2554 14.5895 10.2901 14.652 10.3073 14.7202C10.3121 14.767 10.3074 14.8143 10.2935 14.8593C10.2797 14.9043 10.257 14.9461 10.2267 14.9822C10.1325 15.0753 10.0065 15.1293 9.87408 15.1333L9.23932 15.1938L9.14864 13.9242ZM9.46098 14.1257V14.4079H9.69272C9.72137 14.407 9.74954 14.4002 9.77552 14.3881C9.80151 14.376 9.82475 14.3587 9.84385 14.3373C9.84768 14.3039 9.84768 14.2701 9.84385 14.2366C9.84928 14.21 9.84928 14.1826 9.84385 14.156C9.82429 14.1491 9.80295 14.1491 9.7834 14.156C9.7438 14.1453 9.70208 14.1453 9.66249 14.156L9.46098 14.1257ZM9.46098 14.6295V14.9419H9.70279C9.76677 14.941 9.82801 14.9158 9.87408 14.8713C9.88469 14.853 9.89028 14.8321 9.89028 14.8109C9.89028 14.7897 9.88469 14.7688 9.87408 14.7504C9.87376 14.7311 9.86789 14.7123 9.85717 14.6962C9.84645 14.6801 9.83133 14.6675 9.81362 14.6598C9.78837 14.648 9.76086 14.642 9.73302 14.642C9.70518 14.642 9.67767 14.648 9.65241 14.6598L9.46098 14.6295Z" fill="#005CAA"/>
</g>
<g style="mix-blend-mode:darken">
<path d="M11.4156 14.0451L11.1134 14.1358C11.1134 13.9645 10.9824 13.8839 10.8514 13.9142C10.7204 13.9444 10.6499 14.0955 10.7003 14.3676C10.7089 14.4831 10.7549 14.5928 10.8313 14.6799C10.8571 14.7026 10.8878 14.7189 10.921 14.7276C10.9543 14.7364 10.9891 14.7373 11.0227 14.7303C11.1537 14.7303 11.2141 14.6094 11.2041 14.4381H11.4962C11.5088 14.5047 11.5072 14.5732 11.4916 14.6392C11.476 14.7051 11.4467 14.7671 11.4056 14.821C11.3221 14.9254 11.2043 14.9968 11.0731 15.0225C10.9937 15.0392 10.9117 15.0398 10.8321 15.0243C10.7525 15.0087 10.6768 14.9772 10.6096 14.9318C10.5412 14.876 10.4846 14.8072 10.4431 14.7294C10.4016 14.6516 10.376 14.5662 10.3678 14.4784C10.3378 14.3105 10.3625 14.1375 10.4383 13.9847C10.4778 13.9167 10.5316 13.858 10.596 13.8128C10.6603 13.7676 10.7337 13.7368 10.8111 13.7227C10.934 13.6878 11.0657 13.7019 11.1784 13.762C11.2911 13.8221 11.3762 13.9236 11.4156 14.0451Z" fill="#005CAA"/>
</g>
<g style="mix-blend-mode:darken">
<path d="M12.0605 13.3802C12.3157 13.7496 12.5777 14.1123 12.8464 14.4683L12.5139 14.5791L12.3627 14.3474L11.9396 14.4784C11.9446 14.569 11.9446 14.6598 11.9396 14.7504L11.6675 14.821C11.6675 14.3676 11.7381 13.9242 11.7481 13.4708L12.0605 13.3802ZM11.9496 14.2265L12.2217 14.1459L11.9597 13.7529C11.9597 13.9142 11.9597 14.0653 11.9496 14.2265Z" fill="#005CAA"/>
</g>
</g>
</svg>
