<svg width="41" height="41" viewBox="0 0 41 41" fill="none" xmlns="http://www.w3.org/2000/svg">
<path fill-rule="evenodd" clip-rule="evenodd" d="M3.41675 22.2087V18.792H37.5834V22.2087H3.41675ZM27.3334 37.5837V34.167H34.1667V27.3337H37.5834V34.167C37.5834 36.054 36.1928 37.5837 34.4774 37.5837H27.3334ZM13.6667 37.5837H6.52281C4.80738 37.5837 3.41675 36.054 3.41675 34.167V27.3337H6.83341V34.167H13.6667V37.5837ZM27.3334 3.41699H34.4774C36.1928 3.41699 37.5834 4.94669 37.5834 6.83366V13.667H34.1667V6.83366H27.3334V3.41699ZM13.6667 3.41699V6.83366H6.83341V13.667H3.41675V6.83366C3.41675 4.94669 4.80738 3.41699 6.52281 3.41699H13.6667Z" fill="#282828"/>
</svg>
