<svg width="17" height="17" viewBox="0 0 17 17" fill="none" xmlns="http://www.w3.org/2000/svg">
<g clip-path="url(#clip0_47_64)">
<path d="M1.28365 9.24245C0.87426 9.24245 0.541199 8.90939 0.541199 8.5C0.541199 8.09061 0.87426 7.75755 1.28365 7.75755H2.2412V6.1998H1.28365C0.87426 6.1998 0.541199 5.86673 0.541199 5.45735C0.541199 5.04796 0.87426 4.7149 1.28365 4.7149H2.2412V0.742449C2.2412 0.333061 2.57426 0 2.98365 0H15.7163C16.1257 0 16.4588 0.333061 16.4588 0.742449V16.2576C16.4588 16.6669 16.1257 17 15.7163 17H2.98365C2.57426 17 2.2412 16.6669 2.2412 16.2576V12.2504H1.28365C0.87426 12.2504 0.541199 11.9173 0.541199 11.508C0.541199 11.0986 0.87426 10.7655 1.28365 10.7655H2.2412V9.24245H1.28365ZM3.7261 4.7149H4.06957C4.47895 4.7149 4.81202 5.04796 4.81202 5.45735C4.81202 5.86673 4.47895 6.1998 4.06957 6.1998H3.7261V7.75755H4.06957C4.47895 7.75755 4.81202 8.09061 4.81202 8.5C4.81202 8.90939 4.47895 9.24245 4.06957 9.24245H3.7261V10.7655H4.06957C4.47895 10.7655 4.81202 11.0986 4.81202 11.508C4.81202 11.9173 4.47895 12.2504 4.06957 12.2504H3.7261V15.5151H14.9704V1.4849H3.72263V4.7149H3.7261Z" fill="#757575"/>
<path d="M10.0716 8.49997C8.62486 8.49997 7.47302 7.38629 7.47302 5.93956C7.47302 4.52752 8.62486 3.37915 10.0716 3.37915C11.4836 3.37915 12.6702 4.53099 12.6702 5.93956C12.6702 7.34813 11.5183 8.49997 10.0716 8.49997ZM10.0716 4.86405C9.44016 4.86405 8.91976 5.34629 8.91976 5.97772C8.91976 6.60915 9.44016 7.0914 10.0716 7.0914C10.703 7.0914 11.2234 6.57099 11.2234 5.97772C11.2234 5.34629 10.703 4.86405 10.0716 4.86405Z" fill="#757575"/>
<path d="M13.2635 13.5861C12.8541 13.5861 12.521 13.2531 12.521 12.8437C12.521 11.6572 11.4073 10.6892 10.0716 10.6892C8.7359 10.6892 7.62223 11.6537 7.62223 12.8437C7.62223 13.2531 7.28917 13.5861 6.87978 13.5861C6.47039 13.5861 6.13733 13.2531 6.13733 12.8437C6.13733 10.8384 7.92059 9.20776 10.0716 9.20776C12.2608 9.20776 14.0059 10.8418 14.0059 12.8437C14.0059 13.2496 13.6728 13.5861 13.2635 13.5861Z" fill="#757575"/>
</g>
<defs>
<clipPath id="clip0_47_64">
<rect width="17" height="17" fill="white"/>
</clipPath>
</defs>
</svg>
